<svg xmlns="http://www.w3.org/2000/svg" xmlns:xlink="http://www.w3.org/1999/xlink" version="1.1" viewBox="0 0 512 512" style="width: 200px; height: 200px; transform-origin: 50% 50%; transform: scaleX(1) scaleY(1) rotate(0deg);" xml:space="preserve" preserveAspectRatio="xMidYMid meet"><g id="_x31_4_x2C__Monarchy_x2C__Queen_x2C__Monarchy_x2C__Royal_Crown_x2C__Royalty_x2C__Shapes_x2C__King_x2C__Royal" class=""><g class=""><path style="fill:#DE2828" d="M426,406c0-24.85,20.15-45,45-45l-215-11.333L41,361c24.85,0,45,20.15,45,45    c0,12.42-5.04,23.68-13.18,31.82C64.68,445.96,53.42,451,41,451l215,16.533L471,451c-12.42,0-23.68-5.04-31.82-13.18    C431.04,429.68,426,418.42,426,406z"/><rect x="224.18" y="374.18" transform="matrix(0.7071 -0.7071 0.7071 0.7071 -212.1047 299.934)" style="fill:#ECC500" width="63.64" height="63.64" class=""/><path style="fill:#ECC500" d="M230.58,112.6l-22.913,83.467L153.5,257l-39.167-35.333l-4.743-46.917    C140.66,141.37,183.01,118.63,230.58,112.6z" class=""/><path style="fill:#ECC500" d="M402.41,174.75l-6.477,43.717L358.5,257l-46.833-56L281.4,112.6    C328.97,118.63,371.33,141.37,402.41,174.75z" class=""/><path style="fill:#ECC500" d="M476,451c13.81,0,25,11.19,25,25c0,6.9-2.8,13.16-7.32,17.68C489.16,498.2,482.9,501,476,501H36    c-13.81,0-25-11.19-25-25c0-6.9,2.8-13.16,7.32-17.68C22.84,453.8,29.1,451,36,451h5h215h215H476z" class=""/><polygon style="fill:#ECC500" points="448.23,88.92 402.41,174.75 358.5,257 281.4,112.6 268.76,88.92 243.22,88.92     230.58,112.6 153.5,257 109.59,174.75 63.77,88.92 51,91 51,311 255.99,331 461,311 461,91   " class=""/><rect x="231.251" y="211.251" transform="matrix(0.7071 -0.7071 0.7071 0.7071 -91.8965 250.1421)" style="fill:#ECC500" width="49.497" height="49.497" class=""/><path style="fill:#ECC500" d="M476,311c13.81,0,25,11.19,25,25c0,6.9-2.8,13.16-7.32,17.68C489.16,358.2,482.9,361,476,361h-5    H256H41h-5c-13.81,0-25-11.19-25-25c0-6.9,2.8-13.16,7.32-17.68C22.84,313.8,29.1,311,36,311h15h410H476z" class=""/><path style="fill:#DE2828" d="M51,11c22.09,0,40,17.91,40,40c0,17.62-11.4,32.58-27.23,37.92C59.76,90.27,55.47,91,51,91    c-22.09,0-40-17.91-40-40S28.91,11,51,11z"/><path style="fill:#DE2828" d="M255.99,11c22.1,0,40,17.91,40,40c0,17.63-11.4,32.59-27.23,37.92c-4.01,1.35-8.3,2.08-12.77,2.08    c-4.47,0-8.76-0.73-12.77-2.08c-15.83-5.33-27.23-20.29-27.23-37.92C215.99,28.91,233.9,11,255.99,11z"/><path style="fill:#DE2828" d="M461,11c22.09,0,40,17.91,40,40s-17.91,40-40,40c-4.47,0-8.77-0.73-12.77-2.08    C432.4,83.58,421,68.62,421,51C421,28.91,438.91,11,461,11z"/><g class=""><path style="fill:#5D6167" d="M471,371h5c19.299,0,35-15.701,35-35s-15.701-35-35-35h-5V99.994     c22.795-4.646,40-24.847,40-48.994c0-27.57-22.43-50-50-50s-50,22.43-50,50c0,17.847,9.406,33.531,23.514,42.38l-34.558,64.733     c-30.961-29.137-70.161-48.306-112.125-54.704l-5.354-10.027c14.109-8.849,23.516-24.533,23.516-42.381c0-27.57-22.43-50-50-50     s-50,22.43-50,50c0,17.846,9.404,33.528,23.51,42.377l-5.354,10.03c-41.96,6.398-81.155,25.566-112.108,54.703L77.486,93.38     C91.594,84.531,101,68.847,101,51c0-27.57-22.43-50-50-50S1,23.43,1,51c0,24.146,17.205,44.348,40,48.994V301h-5     c-19.299,0-35,15.701-35,35s15.701,35,35,35h5c19.299,0,35,15.701,35,35s-15.701,35-35,35h-5c-19.299,0-35,15.701-35,35     s15.701,35,35,35h440c19.299,0,35-15.701,35-35s-15.701-35-35-35h-5c-19.299,0-35-15.701-35-35S451.701,371,471,371z M461,21     c16.542,0,30,13.458,30,30s-13.458,30-30,30s-30-13.458-30-30S444.458,21,461,21z M390.156,176.471L358.5,235.767     l-58.538-109.638C333.917,134.205,365.233,151.632,390.156,176.471z M255.994,21c16.542,0,30,13.458,30,30s-13.458,30-30,30     s-30-13.458-30-30S239.452,21,255.994,21z M212.022,126.128l-58.523,109.637l-31.655-59.295     C146.76,151.631,178.071,134.204,212.022,126.128z M21,51c0-16.542,13.458-30,30-30s30,13.458,30,30S67.542,81,51,81     S21,67.542,21,51z M61,104.965l83.679,156.744c3.763,7.05,13.885,7.038,17.644,0l86.092-161.283     c5,0.764,10.132,0.767,15.154,0.001c4.307,8.068,82.994,155.444,86.111,161.283c3.762,7.048,13.885,7.038,17.643,0L451,104.965     V301H61V104.965z M21,336c0-8.271,6.729-15,15-15h440c8.271,0,15,6.729,15,15s-6.729,15-15,15c-18.723,0-421.276,0-440,0     C27.729,351,21,344.271,21,336z M83.395,371h148.463l-27.929,27.929c-3.905,3.905-3.905,10.237,0,14.143L231.857,441H83.395     C100.213,420.665,100.204,391.325,83.395,371z M256,375.142L286.857,406L256,436.858L225.143,406L256,375.142z M491,476     c0,8.271-6.729,15-15,15H36c-8.271,0-15-6.729-15-15s6.729-15,15-15c18.715,0,421.296,0,440,0C484.271,461,491,467.729,491,476z      M280.143,441l27.929-27.929c3.905-3.905,3.905-10.237,0-14.143L280.143,371h148.463c-16.818,20.335-16.809,49.675,0,70H280.143z     " class=""/><path style="fill:#5D6167" d="M263.071,193.929c-3.906-3.905-10.236-3.905-14.143,0l-35,35c-3.905,3.905-3.905,10.237,0,14.143     l35,35c3.906,3.905,10.236,3.905,14.143,0l35-35c3.905-3.905,3.905-10.237,0-14.143L263.071,193.929z M256,256.858L235.143,236     L256,215.142L276.857,236L256,256.858z" class=""/></g></g></g><g id="Layer_1" class=""/></svg>